<svg width="26" height="26" viewBox="0 0 26 26" fill="none" xmlns="http://www.w3.org/2000/svg">
<rect width="26" height="26" fill="#9DA9B0"/>
<path fill-rule="evenodd" clip-rule="evenodd" d="M7.46158 20.3846C7.12188 20.3846 6.84619 20.1089 6.84619 19.7692V19.3588C6.84619 16.8062 8.74158 14.5816 11.2628 13.8616C9.75081 13.192 8.69235 11.68 8.69235 9.92311C8.69235 7.54772 10.6247 5.61542 13 5.61542C15.3754 5.61542 17.3077 7.54772 17.3077 9.92311C17.3077 11.68 16.2493 13.192 14.7373 13.8616C17.2585 14.5816 19.1539 16.8062 19.1539 19.3588V19.7692C19.1539 20.1089 18.8782 20.3846 18.5385 20.3846H7.46158ZM16.077 9.92311C16.077 8.22649 14.6967 6.84619 13 6.84619C11.3034 6.84619 9.92311 8.22649 9.92311 9.92311C9.92311 11.6197 11.3034 13 13 13C14.6967 13 16.077 11.6197 16.077 9.92311ZM8.0825 19.1538C8.20373 16.7988 10.4062 14.8462 13 14.8462C15.5939 14.8462 17.7963 16.7988 17.9176 19.1538H8.0825Z" fill="white"/>
</svg>
